<svg width="96" height="96" viewBox="0 0 96 96" fill="none" xmlns="http://www.w3.org/2000/svg">
<defs><linearGradient id="bannerBg" x1="12" y1="10" x2="84" y2="86" gradientUnits="userSpaceOnUse"><stop stop-color="#38BDF8"/><stop offset="1" stop-color="#1D4ED8"/></linearGradient></defs>
<rect x="8" y="8" width="80" height="80" rx="24" fill="url(#bannerBg)"/>
<rect x="8.5" y="8.5" width="79" height="79" rx="23.5" stroke="#FFFFFF" stroke-opacity=".24"/>
<path d="M27 30C27 26.7 29.7 24 33 24H63C66.3 24 69 26.7 69 30V55C69 58.3 66.3 61 63 61H33C29.7 61 27 58.3 27 55V30Z" fill="#F8FAFC" fill-opacity=".18"/>
<path d="M32 34H64" stroke="#F8FAFC" stroke-width="4" stroke-linecap="round"/>
<path d="M34 45H55" stroke="#F8FAFC" stroke-width="4" stroke-linecap="round"/>
<path d="M34 53H48" stroke="#F8FAFC" stroke-width="4" stroke-linecap="round"/>
<path d="M65 22L66.9 26.1L71 28L66.9 29.9L65 34L63.1 29.9L59 28L63.1 26.1L65 22Z" fill="#FDE68A"/>
<path d="M36 67H60" stroke="#F8FAFC" stroke-width="5" stroke-linecap="round"/>
</svg>
