<svg width="96" height="96" viewBox="0 0 96 96" fill="none" xmlns="http://www.w3.org/2000/svg">
<defs><linearGradient id="contactBg" x1="13" y1="12" x2="84" y2="84" gradientUnits="userSpaceOnUse"><stop stop-color="#22C55E"/><stop offset="1" stop-color="#0EA5E9"/></linearGradient></defs>
<rect x="8" y="8" width="80" height="80" rx="24" fill="url(#contactBg)"/>
<rect x="8.5" y="8.5" width="79" height="79" rx="23.5" stroke="#FFFFFF" stroke-opacity=".24"/>
<rect x="22" y="29" width="52" height="34" rx="12" fill="#FFFFFF" fill-opacity=".18"/>
<path d="M30 37L48 49L66 37" stroke="#F8FAFC" stroke-width="4.5" stroke-linecap="round" stroke-linejoin="round"/>
<path d="M48 66C52.4 62.4 58 57.9 58 52.8C58 48.8 54.8 46 51.2 46C49.4 46 47.8 46.8 46.7 48.2C45.6 46.8 44 46 42.2 46C38.6 46 35.4 48.8 35.4 52.8C35.4 57.9 41 62.4 45.4 66L46.7 67L48 66Z" fill="#FDE68A"/>
</svg>
