<svg width="96" height="96" viewBox="0 0 96 96" fill="none" xmlns="http://www.w3.org/2000/svg">
<defs><linearGradient id="subscribedBg" x1="15" y1="12" x2="84" y2="84" gradientUnits="userSpaceOnUse"><stop stop-color="#10B981"/><stop offset="1" stop-color="#0EA5E9"/></linearGradient></defs>
<rect x="8" y="8" width="80" height="80" rx="24" fill="url(#subscribedBg)"/>
<rect x="8.5" y="8.5" width="79" height="79" rx="23.5" stroke="#FFFFFF" stroke-opacity=".24"/>
<path d="M34 58H62C62 52.6 58.4 48.9 55.2 46.8V39C55.2 34.9 51.9 31.5 47.8 31.5C43.8 31.5 40.5 34.9 40.5 39V46.8C37.4 48.9 34 52.6 34 58Z" fill="#F8FAFC"/>
<path d="M42 60C42.8 63.7 45.1 66 48 66C50.9 66 53.2 63.7 54 60" stroke="#FDE68A" stroke-width="4" stroke-linecap="round"/>
<path d="M62 31L65.3 34.3L72 27.7" stroke="#DBEAFE" stroke-width="5" stroke-linecap="round" stroke-linejoin="round"/>
</svg>
