<svg xmlns="http://www.w3.org/2000/svg" viewBox="0 0 24 24" fill="currentColor" width="24" height="24"><path fill-rule="evenodd" clip-rule="evenodd" d="M20 5H4c-1.1 0-2 .9-2 2v11c0 1.66 1.34 3 3 3h15c1.1 0 2-.9 2-2V7c0-1.1-.9-2-2-2zM5 19c-.55 0-1-.45-1-1V7h12v12H5zm14 0h-1V8h2v10c0 .55-.45 1-1 1z"/><rect x="6" y="9" width="3" height="3"/><rect x="10" y="9" width="4" height="1"/><rect x="10" y="11" width="4" height="1"/><rect x="6" y="14" width="8" height="1"/><rect x="6" y="16" width="8" height="1"/></svg>
