<svg xmlns="http://www.w3.org/2000/svg" width="24" height="24" viewBox="0 0 24 24" fill="none" stroke="currentColor" stroke-width="1.55" stroke-linecap="round" stroke-linejoin="round">
    <path d="M4.75 5.25h10.5a2 2 0 0 1 2 2v6"/>
    <path d="M4.75 5.25a2 2 0 0 0-2 2v9.5a2 2 0 0 0 2 2h7.25"/>
    <path d="M7.75 11.15a2.15 2.15 0 1 0 0-4.3 2.15 2.15 0 0 0 0 4.3Z"/>
    <path d="M4.9 15.75a3.25 3.25 0 0 1 5.7 0"/>
    <path d="M17.75 15.25v2.65"/>
    <path d="M17.75 20.35v.05"/>
    <path d="M14.75 21h6l-3-6.1-3 6.1Z"/>
</svg>
