<svg xmlns="http://www.w3.org/2000/svg" width="24" height="24" viewBox="0 0 24 24" fill="none" stroke="currentColor" stroke-width="1.55" stroke-linecap="round" stroke-linejoin="round">
    <path d="M5 4.25h10.5a2 2 0 0 1 2 2v6.1"/>
    <path d="M5 4.25a2 2 0 0 0-2 2v11.5a2 2 0 0 0 2 2h7.2"/>
    <path d="M8.5 11a2 2 0 1 0 0-4 2 2 0 0 0 0 4Z"/>
    <path d="M5.75 15.25a3.25 3.25 0 0 1 5.5 0"/>
    <path d="M13.25 8.25h2"/>
    <path d="M14.25 17a3.25 3.25 0 1 0 6.5 0 3.25 3.25 0 0 0-6.5 0Z"/>
    <path d="m19.75 19.75 1.5 1.5"/>
</svg>
