<svg xmlns="http://www.w3.org/2000/svg" fill="none" viewBox="0 0 24 24" stroke-width="1.5" stroke="currentColor" width="24" height="24"><path stroke-linecap="round" stroke-linejoin="round" d="M6 6.878V6a2.25 2.25 0 0 1 2.25-2.25h7.5A2.25 2.25 0 0 1 18 6v.878m-12 0c.235-.083.487-.128.75-.128h10.5c.263 0 .515.045.75.128m-12 0A2.25 2.25 0 0 0 3.75 9v.878m14.25-3A2.25 2.25 0 0 1 20.25 9v.878m0 0a2.246 2.246 0 0 0-.75-.128H4.5a2.246 2.246 0 0 0-.75.128m16.5 0A2.25 2.25 0 0 1 21.75 12v3a2.25 2.25 0 0 1-2.25 2.25H4.5A2.25 2.25 0 0 1 2.25 15v-3a2.25 2.25 0 0 1 1.5-2.122"/></svg>
