<svg width="24" height="24" viewBox="0 0 24 24" fill="none" xmlns="http://www.w3.org/2000/svg">
    <path d="M7.75 3h6.5C15.22 3 16 3.78 16 4.75v14.5c0 .97-.78 1.75-1.75 1.75h-6.5C6.78 21 6 20.22 6 19.25V4.75C6 3.78 6.78 3 7.75 3Z" stroke="currentColor" stroke-width="1.7"/>
    <path d="M9.5 5.75h3M10.25 18.25h1.5" stroke="currentColor" stroke-width="1.7" stroke-linecap="round"/>
    <path d="M14 10h4.75m0 0-1.6-1.6m1.6 1.6-1.6 1.6M18.75 14H14m0 0 1.6-1.6M14 14l1.6 1.6" stroke="currentColor" stroke-width="1.7" stroke-linecap="round" stroke-linejoin="round"/>
</svg>
