<svg xmlns="http://www.w3.org/2000/svg" viewBox="0 0 24 24" fill="currentColor" width="24" height="24"><path fill-rule="evenodd" clip-rule="evenodd" d="M12 2C6.48 2 2 6.48 2 12s4.48 10 10 10 10-4.48 10-10S17.52 2 12 2zm0 2a8 8 0 1 0 0 16 8 8 0 0 0 0-16z"/><path d="M11 6h2v1.07c1.41.18 2.5 1.4 2.5 2.93h-2c0-.55-.45-1-1-1h-1c-.55 0-1 .45-1 1 0 .39.23.74.59.89l2.32.97c1.08.46 1.79 1.51 1.79 2.68 0 1.53-1.09 2.75-2.5 2.93V18h-2v-1.07c-1.41-.18-2.5-1.4-2.5-2.93h2c0 .55.45 1 1 1h1c.55 0 1-.45 1-1 0-.39-.23-.74-.59-.89l-2.32-.97A2.91 2.91 0 0 1 8.5 9.46c0-1.53 1.09-2.75 2.5-2.93V6z"/></svg>
