<svg xmlns="http://www.w3.org/2000/svg" viewBox="0 0 24 24" fill="none" stroke="currentColor" stroke-width="1.75" stroke-linecap="round" stroke-linejoin="round" width="24" height="24"><circle cx="12" cy="12" r="3" opacity=".35"/><path d="M19 13.5v-3l-2.1-.4a6 6 0 0 0-.7-1.7l1.2-1.8-2.1-2.1-1.8 1.2a6 6 0 0 0-1.7-.7L11.5 3h-3l-.4 2.1a6 6 0 0 0-1.7.7L4.6 4.6 2.5 6.7l1.2 1.8a6 6 0 0 0-.7 1.7L1 10.5v3l2.1.4a6 6 0 0 0 .7 1.7l-1.2 1.8 2.1 2.1 1.8-1.2a6 6 0 0 0 1.7.7l.4 2.1h3l.4-2.1a6 6 0 0 0 1.7-.7l1.8 1.2 2.1-2.1-1.2-1.8a6 6 0 0 0 .7-1.7z"/></svg>
