<svg xmlns="http://www.w3.org/2000/svg" viewBox="0 0 64 64" role="img" aria-labelledby="title desc">
    <title id="title">DigiKash</title>
    <desc id="desc">DigiKash blue wallet mark</desc>
    <defs>
        <linearGradient id="mark-bg" x1="12" y1="8" x2="52" y2="56" gradientUnits="userSpaceOnUse">
            <stop offset="0" stop-color="#56a9ff"/>
            <stop offset="1" stop-color="#2f6ef3"/>
        </linearGradient>
        <filter id="mark-shadow" x="2" y="4" width="60" height="60" color-interpolation-filters="sRGB">
            <feDropShadow dx="0" dy="8" stdDeviation="6" flood-color="#2f6ef3" flood-opacity=".24"/>
        </filter>
    </defs>
    <rect x="10" y="8" width="44" height="44" rx="11" fill="url(#mark-bg)" filter="url(#mark-shadow)"/>
    <path d="M23.5 25.5h17a4 4 0 0 1 4 4v9a4 4 0 0 1-4 4h-17a4 4 0 0 1-4-4v-14a3 3 0 0 1 3-3h13" fill="none" stroke="#fff" stroke-width="3" stroke-linecap="round" stroke-linejoin="round"/>
    <path d="M23.5 25.5v-1a3 3 0 0 1 3-3h11" fill="none" stroke="#fff" stroke-width="3" stroke-linecap="round" stroke-linejoin="round" opacity=".82"/>
    <path d="M31 31.5h12.5v6H31a3 3 0 0 1 0-6Z" fill="none" stroke="#fff" stroke-width="3" stroke-linecap="round" stroke-linejoin="round"/>
</svg>
